<svg width="40" height="40" viewBox="0 0 40 40" fill="none" xmlns="http://www.w3.org/2000/svg">
    <circle cx="20" cy="20" r="18" fill="#2563EB" stroke="white" stroke-width="2"/>
    <path d="M28 15h-1V12c0-1.1-.9-2-2-2h-10c-1.1 0-2 .9-2 2v3h-1c-.55 0-1 .45-1 1v3c0 .55.45 1 1 1h1v3c0 .55.45 1 1 1v1c0 .55.45 1 1 1h1c.55 0 1-.45 1-1v-1h8v1c0 .55.45 1 1 1h1c.55 0 1-.45 1-1v-1c.55 0 1-.45 1-1v-3h1c.55 0 1-.45 1-1v-3c0-.55-.45-1-1-1zM15 23c-.55 0-1-.45-1-1s.45-1 1-1 1 .45 1 1-.45 1-1 1zm10 0c-.55 0-1-.45-1-1s.45-1 1-1 1 .45 1 1-.45 1-1 1zm1-4H14v-5h12v5z" fill="white"/>
</svg> 